<svg width="744" height="464" viewBox="0 0 744 464" fill="none" xmlns="http://www.w3.org/2000/svg">
<path d="M512 10C512 4.47716 507.521 -0.0224951 502.003 0.215484C474.949 1.3823 448.282 7.27776 423.217 17.66C395.07 29.319 369.494 46.408 347.951 67.9512C326.408 89.4944 309.319 115.07 297.66 143.217C287.278 168.282 281.382 194.95 280.215 222.003C279.978 227.521 284.477 232 290 232L374.4 232C379.923 232 384.359 227.516 384.792 222.01C385.839 208.675 388.978 195.566 394.113 183.17C400.525 167.688 409.924 153.622 421.773 141.773C433.622 129.924 447.688 120.525 463.17 114.113C475.566 108.978 488.675 105.839 502.01 104.792C507.516 104.359 512 99.9228 512 94.4L512 10Z" fill="#645BE2"/>
<path d="M8.4 348V264H27.96L74.28 319.92H65.04V264H88.32V348H68.76L22.44 292.08H31.68V348H8.4ZM131.48 348V264H155.24V348H131.48ZM194.344 348V333.12L243.784 274.44L246.664 282.84H195.424V264H267.784V278.88L218.344 337.56L215.464 329.16H269.584V348H194.344ZM348.046 349.68C341.326 349.68 335.126 348.6 329.446 346.44C323.766 344.28 318.806 341.24 314.566 337.32C310.406 333.32 307.166 328.68 304.846 323.4C302.526 318.12 301.366 312.32 301.366 306C301.366 299.68 302.526 293.88 304.846 288.6C307.166 283.32 310.406 278.72 314.566 274.8C318.806 270.8 323.766 267.72 329.446 265.56C335.126 263.4 341.326 262.32 348.046 262.32C354.846 262.32 361.046 263.4 366.646 265.56C372.326 267.72 377.246 270.8 381.406 274.8C385.566 278.72 388.806 283.32 391.126 288.6C393.526 293.88 394.726 299.68 394.726 306C394.726 312.32 393.526 318.16 391.126 323.52C388.806 328.8 385.566 333.4 381.406 337.32C377.246 341.24 372.326 344.28 366.646 346.44C361.046 348.6 354.846 349.68 348.046 349.68ZM348.046 330C351.246 330 354.206 329.44 356.926 328.32C359.726 327.2 362.126 325.6 364.126 323.52C366.206 321.36 367.806 318.8 368.926 315.84C370.126 312.88 370.726 309.6 370.726 306C370.726 302.32 370.126 299.04 368.926 296.16C367.806 293.2 366.206 290.68 364.126 288.6C362.126 286.44 359.726 284.8 356.926 283.68C354.206 282.56 351.246 282 348.046 282C344.846 282 341.846 282.56 339.046 283.68C336.326 284.8 333.926 286.44 331.846 288.6C329.846 290.68 328.246 293.2 327.046 296.16C325.926 299.04 325.366 302.32 325.366 306C325.366 309.6 325.926 312.88 327.046 315.84C328.246 318.8 329.846 321.36 331.846 323.52C333.926 325.6 336.326 327.2 339.046 328.32C341.846 329.44 344.846 330 348.046 330ZM484.812 348L521.892 264H545.292L582.492 348H557.772L528.732 275.64H538.092L509.052 348H484.812ZM505.092 331.68L511.212 314.16H552.252L558.372 331.68H505.092ZM615.628 348V264H639.388V348H615.628Z" fill="white"/>
<rect x="548" width="97" height="232" rx="10" fill="#B6689E"/>
</svg>
